<svg
    xmlns="http://www.w3.org/2000/svg"
    width="17"
    height="16"
    viewBox="0 0 17 16"
    fill="none"
>
    <g clip-path="url(#clip0_889_5187)">
        <path
            fill-rule="evenodd"
            clip-rule="evenodd"
            d="M14.9001 6.4C14.9001 2.864 12.0361 0 8.5001 0C4.9641 0 2.1001 2.864 2.1001 6.4C2.1001 6.52 2.1001 6.632 2.1081 6.752C2.2121 9.592 3.7001 12.848 7.8121 15.784C8.2201 16.072 8.7801 16.072 9.1881 15.784C13.3001 12.848 14.7881 9.592 14.8921 6.752C14.9001 6.63202 14.9001 6.51997 14.9001 6.4ZM10.1969 8.0968C10.6473 7.6472 10.9001 7.0368 10.9001 6.4C10.9001 5.7632 10.6465 5.1536 10.1969 4.7032C9.7473 4.2528 9.1369 4 8.5001 4C7.8633 4 7.2537 4.2536 6.8033 4.7032C6.3529 5.1528 6.1001 5.7632 6.1001 6.4C6.1001 7.0368 6.3529 7.6472 6.8033 8.0968C7.2529 8.5472 7.8633 8.8 8.5001 8.8C9.1361 8.8 9.7465 8.5472 10.1969 8.0968Z"
            fill="#8C9196"
        />
    </g>
    <defs>
        <clipPath id="clip0_889_5187">
            <rect
                width="16"
                height="16"
                fill="white"
                transform="translate(0.5)"
            />
        </clipPath>
    </defs>
</svg>
