 <svg xmlns="http://www.w3.org/2000/svg" width="18" height="18" fill="none">
    <g clip-path="url(#a)">
        <path
            fill="url(#b)"
            d="M4.564 17.936c-1.07-.048-1.652-.227-2.038-.377a3.412 3.412 0 0 1-1.263-.822 3.385 3.385 0 0 1-.821-1.261c-.151-.387-.33-.969-.378-2.04C.011 12.28 0 11.933 0 9.002c0-2.932.012-3.278.064-4.437.048-1.07.228-1.65.377-2.038.2-.513.438-.878.822-1.263A3.39 3.39 0 0 1 2.525.44c.387-.15.968-.329 2.039-.377C5.72.01 6.069 0 9 0s3.278.012 4.436.064c1.07.048 1.651.228 2.039.377.513.199.878.437 1.263.822.384.384.621.75.82 1.262.151.387.33.968.378 2.039C17.99 5.722 18 6.069 18 9c0 2.93-.01 3.278-.064 4.437-.048 1.07-.228 1.652-.377 2.039-.2.512-.437.877-.822 1.261-.384.385-.75.622-1.262.822-.387.15-.968.329-2.039.377C12.28 17.99 11.931 18 9 18c-2.93 0-3.279-.01-4.436-.064Z"
        />
        <path
            fill="url(#c)"
            d="M4.564 17.936c-1.07-.048-1.652-.227-2.038-.377a3.412 3.412 0 0 1-1.263-.822 3.385 3.385 0 0 1-.821-1.261c-.151-.387-.33-.969-.378-2.04C.011 12.28 0 11.933 0 9.002c0-2.932.012-3.278.064-4.437.048-1.07.228-1.65.377-2.038.2-.513.438-.878.822-1.263A3.39 3.39 0 0 1 2.525.44c.387-.15.968-.329 2.039-.377C5.72.01 6.069 0 9 0s3.278.012 4.436.064c1.07.048 1.651.228 2.039.377.513.199.878.437 1.263.822.384.384.621.75.82 1.262.151.387.33.968.378 2.039C17.99 5.722 18 6.069 18 9c0 2.93-.01 3.278-.064 4.437-.048 1.07-.228 1.652-.377 2.039-.2.512-.437.877-.822 1.261-.384.385-.75.622-1.262.822-.387.15-.968.329-2.039.377C12.28 17.99 11.931 18 9 18c-2.93 0-3.279-.01-4.436-.064Z"
        />
        <path
            fill="#fff"
            d="M6.79 9.038a2.229 2.229 0 1 1 4.458 0 2.229 2.229 0 0 1-4.458 0Zm-1.205 0a3.434 3.434 0 1 0 6.867 0 3.434 3.434 0 0 0-6.867 0Zm6.2-3.57a.802.802 0 1 0 .804-.802.803.803 0 0 0-.803.803Zm-5.468 9.014c-.652-.03-1.006-.139-1.242-.23a2.078 2.078 0 0 1-.769-.5 2.063 2.063 0 0 1-.5-.77c-.092-.235-.2-.59-.23-1.241-.033-.705-.04-.917-.04-2.702 0-1.786.008-1.997.04-2.703.03-.652.139-1.006.23-1.242.121-.312.266-.535.5-.769a2.06 2.06 0 0 1 .77-.5c.235-.092.59-.2 1.241-.23.705-.033.917-.039 2.702-.039s1.996.007 2.702.039c.652.03 1.006.14 1.242.23.312.121.535.266.769.5.234.234.379.457.5.77.092.235.2.59.23 1.241.033.706.04.917.04 2.703 0 1.785-.007 1.997-.04 2.702-.03.652-.139 1.006-.23 1.242a2.072 2.072 0 0 1-.5.768 2.078 2.078 0 0 1-.77.5c-.235.092-.589.201-1.241.23-.705.033-.917.04-2.702.04-1.786 0-1.997-.007-2.702-.04Zm-.055-12.09c-.712.032-1.199.145-1.623.31-.44.171-.813.4-1.185.772-.372.371-.6.744-.771 1.184-.166.425-.279.912-.311 1.623-.033.713-.04.941-.04 2.757 0 1.816.007 2.044.04 2.757.032.712.145 1.198.31 1.623.171.44.4.814.772 1.185.372.372.744.6 1.185.771.425.166.91.278 1.623.311.713.032.94.04 2.757.04 1.816 0 2.044-.007 2.757-.04.712-.033 1.198-.145 1.623-.31.44-.172.812-.4 1.184-.772.373-.371.6-.745.772-1.184.165-.426.278-.912.31-1.624.033-.713.04-.94.04-2.757 0-1.816-.007-2.044-.04-2.757-.032-.711-.145-1.198-.31-1.623-.172-.44-.4-.812-.772-1.184a3.272 3.272 0 0 0-1.184-.772c-.425-.165-.912-.278-1.623-.31-.713-.033-.94-.04-2.757-.04-1.815 0-2.044.007-2.757.04"
        />
    </g>
    <defs>
        <radialGradient
            id="b"
            cx="0"
            cy="0"
            r="1"
            gradientTransform="translate(1.165 17.606) scale(22.8533)"
            gradientUnits="userSpaceOnUse"
        >
            <stop offset=".09" stop-color="#FA8F21" />
            <stop offset=".78" stop-color="#D82D7E" />
        </radialGradient>
        <radialGradient
            id="c"
            cx="0"
            cy="0"
            r="1"
            gradientTransform="translate(12.468 17.028) scale(20.1111)"
            gradientUnits="userSpaceOnUse"
        >
            <stop offset=".64" stop-color="#8C3AAA" stop-opacity="0" />
            <stop offset="1" stop-color="#8C3AAA" />
        </radialGradient>
        <clipPath id="a"><path fill="#fff" d="M0 0h18v18H0z" /></clipPath>
    </defs>
</svg>
