<svg
    xmlns="http://www.w3.org/2000/svg"
    width="17"
    height="16"
    viewBox="0 0 17 16"
    fill="none"
>
    <path
        fill-rule="evenodd"
        clip-rule="evenodd"
        d="M2.8999 1.2C2.8999 0.537258 3.43716 0 4.0999 0H12.8999C13.5626 0 14.0999 0.537258 14.0999 1.2V14.8C14.0999 15.4627 13.5626 16 12.8999 16H4.0999C3.43716 16 2.8999 15.4627 2.8999 14.8V1.2ZM4.4999 1.6H12.4999V12.8H4.4999V1.6ZM7.6999 13.6C7.25807 13.6 6.8999 13.9582 6.8999 14.4C6.8999 14.8418 7.25807 15.2 7.6999 15.2H9.2999C9.74173 15.2 10.0999 14.8418 10.0999 14.4C10.0999 13.9582 9.74173 13.6 9.2999 13.6H7.6999Z"
        fill="#8C9196"
    />
</svg>
