<svg
    xmlns="http://www.w3.org/2000/svg"
    width="20"
    height="20"
    viewBox="0 0 16 16"
    fill="none"
>
    <path
        fill-rule="evenodd"
        clip-rule="evenodd"
        d="M8.0001 14.4C4.4713 14.4 1.6001 11.5288 1.6001 7.99998C1.6001 4.47118 4.4713 1.59998 8.0001 1.59998C11.5289 1.59998 14.4001 4.47118 14.4001 7.99998C14.4001 11.5288 11.5289 14.4 8.0001 14.4ZM9.8345 10.6344C9.6297 10.6344 9.4249 10.556 9.2689 10.4L7.4345 8.56558C7.2841 8.41597 7.2001 8.21198 7.2001 7.99998V4.79998C7.2001 4.35838 7.5577 3.99998 8.0001 3.99998C8.4425 3.99998 8.8001 4.35838 8.8001 4.79998V7.66878L10.4001 9.26878C10.7129 9.58158 10.7129 10.0872 10.4001 10.4C10.2441 10.556 10.0393 10.6344 9.8345 10.6344Z"
        fill="#8C9196"
    />
</svg>
